<svg width="201" height="34" viewBox="0 0 201 34" fill="none" xmlns="http://www.w3.org/2000/svg">
<path fill-rule="evenodd" clip-rule="evenodd" d="M29.1968 5.66284H35.6017V11.0347H35.6017V15.7429H39.7192C40.2459 15.7429 40.6883 15.6481 41.0464 15.4585C41.4256 15.2689 41.7205 14.9951 41.9312 14.6369C42.1418 14.2788 42.2471 13.8364 42.2471 13.3098C42.2471 12.8253 42.1418 12.4145 41.9312 12.0774C41.7205 11.7404 41.415 11.4876 41.0148 11.3191C40.6356 11.1295 40.1616 11.0347 39.5928 11.0347H36.8656V5.66284H40.5092C42.2787 5.66284 43.7955 5.95777 45.0594 6.54761C46.3234 7.13746 47.2819 7.96956 47.935 9.04393C48.6091 10.0972 48.9461 11.3507 48.9461 12.8042C48.9461 14.321 48.588 15.6586 47.8718 16.8173C47.1766 17.9548 46.197 18.8501 44.9331 19.5032C44.8657 19.5386 44.7979 19.573 44.7295 19.6065L50.0521 27.7821H42.3735L37.7075 20.4827H35.5798V27.7821H29.1968V5.66284Z" fill="#2A2A2A"/>
<path d="M64.6138 19.4611L67.2937 25.9855L64.6138 28.6654L61.9339 25.9855L64.6138 19.4611Z" fill="url(#paint0_linear_145_2202)"/>
<path d="M11.9023 15.3532L6.68844 27.7821H0L9.79567 5.66284H11.9023V15.3532Z" fill="#2A2A2A"/>
<path d="M13.1661 15.3532L18.3799 27.7821H25.0684L15.2727 5.66284H13.1661V15.3532Z" fill="#2A2A2A"/>
<path d="M64.1459 15.3532L58.9321 27.7821H52.2437L62.0393 5.66284H64.1459V15.3532Z" fill="#2A2A2A"/>
<path d="M65.4097 15.3532L70.6236 27.7821H77.312L67.5163 5.66284H65.4097V15.3532Z" fill="#2A2A2A"/>
<path d="M85.4312 15.631V8.02075L88.6185 15.631L91.8059 8.02145V15.631V27.779H85.4312V15.631Z" fill="#2A2A2A"/>
<path d="M77.7334 5.76817H84.4859L89.7612 18.3458V27.7791H87.5456L77.7334 5.76817Z" fill="#2A2A2A"/>
<path d="M99.5039 5.76817H92.7515L87.4761 18.3458V27.7791H89.6917L99.5039 5.76817Z" fill="#2A2A2A"/>
<path d="M154.721 2.94141H156.818C157.077 2.94141 157.206 3.09673 157.206 3.40737V27.4436C157.206 27.7542 157.077 27.9096 156.818 27.9096H155.692C155.407 27.9096 155.265 27.7542 155.265 27.4436V5.93137H155.109L148.236 22.0461C148.081 22.3309 147.887 22.4733 147.654 22.4733H146.372C146.114 22.4733 145.932 22.3309 145.829 22.0461L138.839 5.89254H138.684V27.4436C138.684 27.7542 138.555 27.9096 138.296 27.9096H137.17C136.911 27.9096 136.781 27.7542 136.781 27.4436V3.40737C136.781 3.09673 136.911 2.94141 137.17 2.94141H139.266C139.448 2.94141 139.564 3.01907 139.616 3.17439L146.916 20.2211H147.071L154.372 3.17439C154.423 3.01907 154.54 2.94141 154.721 2.94141Z" fill="#2A2A2A"/>
<path d="M163.663 22.3956V20.9977C163.663 20.7129 163.806 20.5706 164.09 20.5706H165.217C165.501 20.5706 165.644 20.7129 165.644 20.9977V22.2791C165.644 24.8678 166.899 26.1622 169.41 26.1622H173.449C175.96 26.1622 177.215 24.8549 177.215 22.2403V20.6094C177.215 19.4704 176.749 18.5772 175.817 17.9301C174.885 17.2829 173.759 16.8169 172.439 16.5322C171.119 16.2474 169.786 15.9497 168.44 15.6391C167.119 15.3284 165.993 14.7589 165.061 13.9305C164.129 13.1021 163.663 11.989 163.663 10.5911V8.45537C163.663 6.74682 164.155 5.40068 165.139 4.41697C166.123 3.43326 167.456 2.94141 169.138 2.94141H173.643C175.326 2.94141 176.659 3.43326 177.642 4.41697C178.626 5.40068 179.118 6.74682 179.118 8.45537V9.54263C179.118 9.82739 178.976 9.96977 178.691 9.96977H177.565C177.28 9.96977 177.138 9.82739 177.138 9.54263V8.57186C177.138 5.98315 175.882 4.68879 173.371 4.68879H169.371C166.886 4.68879 165.644 6.00903 165.644 8.64952V10.5911C165.644 12.3773 167.236 13.581 170.42 14.2023C171.74 14.4612 173.06 14.7589 174.381 15.0954C175.727 15.432 176.866 16.0403 177.798 16.9205C178.73 17.8006 179.196 18.9914 179.196 20.4929V22.3956C179.196 24.1042 178.704 25.4503 177.72 26.434C176.736 27.4177 175.403 27.9096 173.721 27.9096H169.138C167.456 27.9096 166.123 27.4177 165.139 26.434C164.155 25.4503 163.663 24.1042 163.663 22.3956Z" fill="#2A2A2A"/>
<path d="M185.468 22.3956V20.9977C185.468 20.7129 185.61 20.5706 185.895 20.5706H187.021C187.306 20.5706 187.448 20.7129 187.448 20.9977V22.2791C187.448 24.8678 188.704 26.1622 191.215 26.1622H195.253C197.764 26.1622 199.02 24.8549 199.02 22.2403V20.6094C199.02 19.4704 198.554 18.5772 197.622 17.9301C196.69 17.2829 195.564 16.8169 194.243 16.5322C192.923 16.2474 191.59 15.9497 190.244 15.6391C188.924 15.3284 187.798 14.7589 186.866 13.9305C185.934 13.1021 185.468 11.989 185.468 10.5911V8.45537C185.468 6.74682 185.96 5.40068 186.943 4.41697C187.927 3.43326 189.26 2.94141 190.943 2.94141H195.447C197.13 2.94141 198.463 3.43326 199.447 4.41697C200.43 5.40068 200.922 6.74682 200.922 8.45537V9.54263C200.922 9.82739 200.78 9.96977 200.495 9.96977H199.369C199.084 9.96977 198.942 9.82739 198.942 9.54263V8.57186C198.942 5.98315 197.686 4.68879 195.175 4.68879H191.176C188.691 4.68879 187.448 6.00903 187.448 8.64952V10.5911C187.448 12.3773 189.04 13.581 192.224 14.2023C193.544 14.4612 194.865 14.7589 196.185 15.0954C197.531 15.432 198.67 16.0403 199.602 16.9205C200.534 17.8006 201 18.9914 201 20.4929V22.3956C201 24.1042 200.508 25.4503 199.524 26.434C198.541 27.4177 197.208 27.9096 195.525 27.9096H190.943C189.26 27.9096 187.927 27.4177 186.943 26.434C185.96 25.4503 185.468 24.1042 185.468 22.3956Z" fill="#2A2A2A"/>
<path d="M116.492 0V33.3702" stroke="#2A2A2A"/>
<defs>
<linearGradient id="paint0_linear_145_2202" x1="66.9149" y1="21.7621" x2="62.3127" y2="26.3643" gradientUnits="userSpaceOnUse">
<stop stop-color="#00FFD1"/>
<stop offset="1" stop-color="#00A3FF"/>
</linearGradient>
</defs>
</svg>
