<svg width="102" height="34" viewBox="0 0 102 34" fill="none" xmlns="http://www.w3.org/2000/svg">
<g clip-path="url(#clip0_18_6068)">
<path d="M94.7 10.5999L89.1 9.2999L88.1 8.8999L62.4 9.0999V21.4999L94.7 21.5999V10.5999Z" fill="#212121"/>
<path d="M84.2 20.4C84.3609 19.9741 84.4176 19.5159 84.3654 19.0636C84.3133 18.6113 84.1537 18.1781 83.9 17.8C83.6395 17.4876 83.3199 17.2297 82.9595 17.0409C82.5992 16.8522 82.2052 16.7363 81.8 16.7L64.4 16.5C64.3 16.5 64.2 16.4 64.1 16.4C64.0767 16.3825 64.0578 16.3599 64.0448 16.3339C64.0318 16.3078 64.025 16.2791 64.025 16.25C64.025 16.2209 64.0318 16.1922 64.0448 16.1662C64.0578 16.1401 64.0767 16.1175 64.1 16.1C64.2 15.9 64.3 15.8 64.5 15.8L82 15.6C83.111 15.4767 84.1691 15.0597 85.0655 14.3918C85.9618 13.7239 86.6641 12.8293 87.1 11.8L88.1 9.20002C88.1 9.10002 88.2 9.00001 88.1 8.90001C87.5563 6.47843 86.237 4.30052 84.3426 2.69721C82.4481 1.09391 80.082 0.152865 77.6039 0.0170769C75.1257 -0.118712 72.671 0.558179 70.6127 1.94489C68.5544 3.33161 67.005 5.35233 66.2 7.70002C65.155 6.95365 63.8803 6.59957 62.6 6.70002C61.4251 6.83102 60.3297 7.35777 59.4937 8.19372C58.6578 9.02966 58.131 10.1251 58 11.3C57.9334 11.9014 57.9672 12.5097 58.1 13.1C56.1989 13.1526 54.3934 13.9448 53.0674 15.3081C51.7415 16.6714 50.9997 18.4982 51 20.4C50.9836 20.7695 51.0172 21.1395 51.1 21.5C51.1046 21.5781 51.1377 21.6517 51.193 21.707C51.2483 21.7623 51.3219 21.7954 51.4 21.8H83.5C83.7 21.8 83.9 21.7 83.9 21.5L84.2 20.4Z" fill="#393939"/>
<path d="M89.7 9.19995H89.2C89.1 9.19995 89 9.29995 88.9 9.39995L88.2 11.8C88.0391 12.2259 87.9824 12.6841 88.0346 13.1363C88.0868 13.5886 88.2464 14.0219 88.5 14.4C88.7606 14.7123 89.0802 14.9703 89.4405 15.159C89.8008 15.3478 90.1949 15.4636 90.6 15.5L94.3 15.7C94.4 15.7 94.5 15.8 94.6 15.8C94.6233 15.8174 94.6422 15.8401 94.6552 15.8661C94.6682 15.8921 94.675 15.9208 94.675 15.95C94.675 15.9791 94.6682 16.0078 94.6552 16.0338C94.6422 16.0598 94.6233 16.0825 94.6 16.1C94.5 16.3 94.4 16.4 94.2 16.4L90.4 16.6C89.289 16.7232 88.2309 17.1403 87.3346 17.8082C86.4382 18.476 85.736 19.3706 85.3 20.4L85.1 21.3C85 21.4 85.1 21.6 85.3 21.6H98.5C98.5408 21.6058 98.5823 21.602 98.6214 21.589C98.6604 21.576 98.6959 21.5541 98.725 21.5249C98.7541 21.4958 98.7761 21.4604 98.7891 21.4213C98.8021 21.3822 98.8058 21.3407 98.8 21.3C99.0381 20.4527 99.1724 19.5796 99.2 18.7C99.1842 16.1853 98.1782 13.7781 96.4 12C94.6219 10.2218 92.2147 9.2158 89.7 9.19995" fill="#393939"/>
<path d="M100.5 27.2C100.322 27.2 100.148 27.1472 99.9999 27.0483C99.8519 26.9494 99.7366 26.8088 99.6684 26.6444C99.6003 26.4799 99.5825 26.299 99.6172 26.1244C99.652 25.9498 99.7377 25.7894 99.8635 25.6636C99.9894 25.5377 100.15 25.452 100.324 25.4172C100.499 25.3825 100.68 25.4003 100.844 25.4685C101.009 25.5366 101.149 25.6519 101.248 25.7999C101.347 25.9479 101.4 26.1219 101.4 26.2999C101.4 26.4183 101.377 26.5355 101.332 26.645C101.287 26.7544 101.221 26.8538 101.137 26.9375C101.054 27.0211 100.954 27.0874 100.845 27.1325C100.736 27.1775 100.618 27.2004 100.5 27.2ZM100.5 25.6C100.361 25.6 100.226 25.641 100.111 25.7179C99.9959 25.7948 99.9062 25.9042 99.8532 26.0321C99.8002 26.16 99.7864 26.3007 99.8134 26.4365C99.8404 26.5723 99.9071 26.697 100.005 26.7949C100.103 26.8928 100.228 26.9595 100.363 26.9865C100.499 27.0135 100.64 26.9996 100.768 26.9467C100.896 26.8937 101.005 26.804 101.082 26.6889C101.159 26.5737 101.2 26.4384 101.2 26.2999C101.202 26.2074 101.186 26.1154 101.151 26.0294C101.117 25.9435 101.065 25.8654 101 25.8C100.934 25.7345 100.856 25.683 100.77 25.6486C100.685 25.6143 100.592 25.5977 100.5 25.6M100.9 26.7999H100.7L100.5 26.5H100.3V26.7999H100.1V25.9H100.6C100.641 25.8941 100.682 25.8979 100.721 25.9109C100.76 25.9239 100.796 25.9458 100.825 25.975C100.854 26.0041 100.876 26.0395 100.889 26.0786C100.902 26.1177 100.906 26.1592 100.9 26.2C100.9 26.3 100.8 26.4 100.7 26.5L100.9 26.7999V26.7999ZM100.6 26.2999C100.7 26.2999 100.7 26.3 100.7 26.2C100.7 26.1867 100.698 26.1736 100.693 26.1614C100.688 26.1491 100.681 26.138 100.671 26.1286C100.662 26.1193 100.651 26.1119 100.639 26.107C100.626 26.1021 100.613 26.0997 100.6 26.1H100.3V26.4H100.6V26.2999ZM10.8999 25.4H13.0999V31.4H16.8999V33.2999H10.8999V25.4ZM19.1999 29.2999C19.2 28.7445 19.3128 28.1948 19.5314 27.6842C19.7501 27.1736 20.0701 26.7127 20.4722 26.3293C20.8742 25.946 21.3498 25.6483 21.8702 25.4542C22.3907 25.26 22.9451 25.1736 23.4999 25.2C24.0496 25.1752 24.5985 25.2635 25.1126 25.4595C25.6268 25.6555 26.0952 25.9549 26.4889 26.3393C26.8827 26.7236 27.1933 27.1847 27.4016 27.694C27.6099 28.2032 27.7115 28.7498 27.6999 29.2999C27.6999 29.8554 27.5871 30.4051 27.3685 30.9157C27.1498 31.4263 26.8297 31.8872 26.4277 32.2706C26.0257 32.6539 25.5501 32.9516 25.0296 33.1457C24.5092 33.3399 23.9548 33.4264 23.3999 33.4C22.8524 33.4162 22.3072 33.322 21.7969 33.123C21.2865 32.924 20.8215 32.6243 20.4295 32.2416C20.0375 31.859 19.7267 31.4013 19.5154 30.8959C19.3042 30.3905 19.1969 29.8477 19.1999 29.2999ZM25.4999 29.2999C25.5195 29.0227 25.4827 28.7444 25.3917 28.4818C25.3007 28.2192 25.1574 27.9778 24.9705 27.7722C24.7835 27.5666 24.5568 27.401 24.3041 27.2854C24.0513 27.1699 23.7778 27.1068 23.4999 27.1C22.9607 27.1263 22.4523 27.359 22.0799 27.75C21.7076 28.1409 21.4999 28.6601 21.4999 29.2C21.4999 29.7398 21.7076 30.259 22.0799 30.65C22.4523 31.0409 22.9607 31.2736 23.4999 31.2999C24.6999 31.4999 25.4999 30.4999 25.4999 29.2999ZM30.3999 29.7999V25.4H32.5999V29.7999C32.5999 30.8999 33.1999 31.5 34.0999 31.5C34.3101 31.5174 34.5216 31.4872 34.7184 31.4114C34.9152 31.3357 35.0924 31.2164 35.2367 31.0625C35.3809 30.9086 35.4885 30.7241 35.5514 30.5228C35.6143 30.3215 35.6309 30.1086 35.5999 29.9V25.4H37.7999V29.7999C37.7999 32.3999 36.2999 33.5 34.0999 33.5C31.7999 33.4 30.3999 32.2999 30.3999 29.7999M41.0999 25.4H44.1999C46.9999 25.4 48.6999 26.9999 48.6999 29.2999C48.6999 31.5999 46.9999 33.2999 44.1999 33.2999H41.1999V25.4H41.0999ZM44.1999 31.2999C44.4786 31.3265 44.7598 31.2946 45.0254 31.2062C45.291 31.1178 45.5352 30.9749 45.7423 30.7866C45.9494 30.5982 46.1149 30.3687 46.2282 30.1127C46.3414 29.8567 46.3999 29.5799 46.3999 29.2999C46.3999 29.02 46.3414 28.7432 46.2282 28.4872C46.1149 28.2312 45.9494 28.0017 45.7423 27.8133C45.5352 27.625 45.291 27.4821 45.0254 27.3937C44.7598 27.3053 44.4786 27.2734 44.1999 27.2999H43.2999V31.2999H44.1999ZM51.7999 25.4H58.0999V27.2999H53.9999V28.6H57.6999V30.4H53.9999V33.2999H51.7999V25.4ZM61.1999 25.4H63.3999V31.4H67.1999V33.2999H61.1999V25.4ZM72.8999 25.2999H75.0999L78.4999 33.2999H76.0999L75.4999 31.9H72.3999L71.7999 33.2999H69.4999L72.8999 25.2999ZM74.8999 30.2L73.9999 28L73.0999 30.2H74.8999ZM81.2999 25.4H84.9999C85.472 25.3616 85.9469 25.4219 86.3945 25.5768C86.8421 25.7317 87.2526 25.978 87.5999 26.2999C87.8865 26.6089 88.0944 26.9822 88.2061 27.3885C88.3178 27.7947 88.33 28.2219 88.2417 28.6339C88.1535 29.0459 87.9673 29.4306 87.6989 29.7554C87.4305 30.0802 87.0879 30.3356 86.6999 30.5L88.5999 33.2999H86.0999L84.4999 30.9H83.4999V33.2999H81.2999V25.4ZM84.8999 29.2C85.5999 29.2 86.0999 28.7999 86.0999 28.2999C86.0999 27.6999 85.5999 27.4 84.8999 27.4H83.4999V29.2999H84.8999V29.2ZM91.3999 25.4H97.7999V27.2H93.5999V28.4H97.3999V30.2H93.5999V31.4H97.8999V33.2999H91.3999V25.4ZM6.09994 30.2999C5.94912 30.6534 5.69851 30.9551 5.3788 31.1682C5.0591 31.3814 4.68417 31.4967 4.29994 31.5C3.76071 31.4736 3.25227 31.2409 2.87994 30.85C2.50762 30.459 2.29994 29.9398 2.29994 29.4C2.29994 28.8601 2.50762 28.3409 2.87994 27.95C3.25227 27.559 3.76071 27.3263 4.29994 27.2999C4.7089 27.3078 5.10664 27.435 5.44421 27.666C5.78179 27.897 6.04447 28.2216 6.19994 28.6H8.49994C8.30319 27.642 7.77328 26.7849 7.00434 26.1807C6.2354 25.5765 5.2772 25.2645 4.29994 25.2999C3.74717 25.282 3.19634 25.3743 2.67962 25.5715C2.16289 25.7686 1.69061 26.0668 1.29033 26.4484C0.890058 26.8301 0.5698 27.2876 0.34825 27.7944C0.1267 28.3011 0.00829454 28.8469 -5.76645e-05 29.4C-0.0031358 29.9477 0.10415 30.4905 0.315401 30.9959C0.526651 31.5013 0.837536 31.959 1.22951 32.3416C1.62148 32.7243 2.08652 33.024 2.59686 33.223C3.10721 33.422 3.65241 33.5162 4.19994 33.5C5.1554 33.5064 6.08602 33.1958 6.84604 32.6167C7.60606 32.0376 8.15256 31.2228 8.39994 30.2999H6.09994Z" fill="#393939"/>
</g>
<defs>
<clipPath id="clip0_18_6068">
<rect width="101.4" height="33.5" fill="white"/>
</clipPath>
</defs>
</svg>
