<svg width="114" height="20" viewBox="0 0 114 20" fill="none" xmlns="http://www.w3.org/2000/svg">
<path d="M10.3625 11.5588L12.6075 17.0244L10.3625 19.2694L8.11759 17.0244L10.3625 11.5588Z" fill="url(#paint0_linear_143_1936)"/>
<path d="M9.97059 8.11765L5.60294 18.5294H0L8.20588 0H9.97059V8.11765Z" fill="#2A2A2A"/>
<path d="M11.0294 8.11765L15.3971 18.5294H21L12.7941 0H11.0294V8.11765Z" fill="#2A2A2A"/>
<path d="M41.394 14.6346H40.1937L43.6653 5.1801H44.8471L48.3187 14.6346H47.1184L44.2931 6.67584H44.2193L41.394 14.6346ZM41.8372 10.9415H46.6752V11.9571H41.8372V10.9415ZM49.7914 14.6346V5.1801H52.986C53.7246 5.1801 54.3309 5.30628 54.8049 5.55865C55.2788 5.80794 55.6297 6.1511 55.8574 6.58812C56.0852 7.02515 56.199 7.52219 56.199 8.07925C56.199 8.6363 56.0852 9.13026 55.8574 9.56113C55.6297 9.99201 55.2804 10.3305 54.8095 10.5768C54.3386 10.8199 53.7369 10.9415 53.0044 10.9415H50.4192V9.90737H52.9675C53.4722 9.90737 53.8785 9.83351 54.1863 9.68578C54.4971 9.53805 54.7218 9.32877 54.8603 9.05794C55.0018 8.78403 55.0726 8.4578 55.0726 8.07925C55.0726 7.70069 55.0018 7.36985 54.8603 7.0867C54.7187 6.80356 54.4925 6.58505 54.1816 6.43116C53.8708 6.2742 53.4599 6.19572 52.949 6.19572H50.9363V14.6346H49.7914ZM54.2417 10.3875L56.5684 14.6346H55.2388L52.949 10.3875H54.2417ZM58.4946 14.6346H57.2943L60.7659 5.1801H61.9477L65.4193 14.6346H64.219L61.3937 6.67584H61.3199L58.4946 14.6346ZM58.9378 10.9415H63.7758V11.9571H58.9378V10.9415ZM65.1146 5.1801H66.4257L69.0479 9.59345H69.1586L71.7808 5.1801H73.0919L69.6757 10.7383V14.6346H68.5308V10.7383L65.1146 5.1801ZM79.6692 2.13322V17.6815H78.7459V2.13322H79.6692ZM86.1381 5.1801H87.5045L90.7176 13.0281H90.8284L94.0415 5.1801H95.4079V14.6346H94.3369V7.4514H94.2446L91.29 14.6346H90.2559L87.3014 7.4514H87.2091V14.6346H86.1381V5.1801ZM102.874 7.54373C102.819 7.07593 102.594 6.71277 102.2 6.45425C101.806 6.19572 101.323 6.06646 100.75 6.06646C100.332 6.06646 99.9656 6.13417 99.6516 6.26959C99.3408 6.405 99.0977 6.5912 98.9222 6.82818C98.7499 7.06516 98.6637 7.33445 98.6637 7.63606C98.6637 7.88843 98.7237 8.10541 98.8438 8.28699C98.9669 8.46549 99.1238 8.61476 99.3146 8.73479C99.5054 8.85174 99.7055 8.94868 99.9148 9.02562C100.124 9.09949 100.316 9.1595 100.492 9.20567L101.452 9.46419C101.698 9.52882 101.972 9.61807 102.274 9.73194C102.578 9.84582 102.869 10.0012 103.146 10.1982C103.426 10.3921 103.657 10.6414 103.839 10.9461C104.02 11.2508 104.111 11.6247 104.111 12.0679C104.111 12.5788 103.977 13.0404 103.71 13.4528C103.445 13.8652 103.057 14.193 102.546 14.4361C102.038 14.6793 101.421 14.8008 100.695 14.8008C100.018 14.8008 99.4316 14.6916 98.9361 14.4731C98.4437 14.2546 98.0559 13.9499 97.7727 13.559C97.4927 13.1681 97.3342 12.7142 97.2972 12.1971H98.479C98.5098 12.5542 98.6299 12.8496 98.8391 13.0835C99.0515 13.3143 99.3192 13.4867 99.6424 13.6006C99.9686 13.7113 100.319 13.7667 100.695 13.7667C101.132 13.7667 101.524 13.696 101.872 13.5544C102.22 13.4097 102.495 13.2097 102.699 12.9542C102.902 12.6957 103.003 12.3941 103.003 12.0494C103.003 11.7355 102.915 11.4801 102.74 11.2831C102.565 11.0861 102.334 10.9261 102.048 10.803C101.761 10.6799 101.452 10.5721 101.12 10.4798L99.9563 10.1474C99.2177 9.93507 98.6329 9.63192 98.2021 9.23798C97.7712 8.84404 97.5558 8.32854 97.5558 7.69146C97.5558 7.16211 97.6989 6.70046 97.9851 6.30652C98.2744 5.9095 98.6622 5.60174 99.1484 5.38322C99.6378 5.16163 100.184 5.05084 100.787 5.05084C101.397 5.05084 101.938 5.16009 102.412 5.37861C102.886 5.59404 103.262 5.8895 103.539 6.26497C103.819 6.64044 103.967 7.0667 103.982 7.54373H102.874ZM111.164 7.54373C111.109 7.07593 110.884 6.71277 110.49 6.45425C110.096 6.19572 109.613 6.06646 109.04 6.06646C108.622 6.06646 108.256 6.13417 107.942 6.26959C107.631 6.405 107.388 6.5912 107.212 6.82818C107.04 7.06516 106.954 7.33445 106.954 7.63606C106.954 7.88843 107.014 8.10541 107.134 8.28699C107.257 8.46549 107.414 8.61476 107.605 8.73479C107.795 8.85174 107.996 8.94868 108.205 9.02562C108.414 9.09949 108.606 9.1595 108.782 9.20567L109.742 9.46419C109.988 9.52882 110.262 9.61807 110.564 9.73194C110.869 9.84582 111.159 10.0012 111.436 10.1982C111.716 10.3921 111.947 10.6414 112.129 10.9461C112.31 11.2508 112.401 11.6247 112.401 12.0679C112.401 12.5788 112.267 13.0404 112 13.4528C111.735 13.8652 111.347 14.193 110.836 14.4361C110.328 14.6793 109.711 14.8008 108.985 14.8008C108.308 14.8008 107.722 14.6916 107.226 14.4731C106.734 14.2546 106.346 13.9499 106.063 13.559C105.783 13.1681 105.624 12.7142 105.587 12.1971H106.769C106.8 12.5542 106.92 12.8496 107.129 13.0835C107.342 13.3143 107.609 13.4867 107.932 13.6006C108.259 13.7113 108.61 13.7667 108.985 13.7667C109.422 13.7667 109.814 13.696 110.162 13.5544C110.51 13.4097 110.785 13.2097 110.989 12.9542C111.192 12.6957 111.293 12.3941 111.293 12.0494C111.293 11.7355 111.206 11.4801 111.03 11.2831C110.855 11.0861 110.624 10.9261 110.338 10.803C110.051 10.6799 109.742 10.5721 109.41 10.4798L108.246 10.1474C107.508 9.93507 106.923 9.63192 106.492 9.23798C106.061 8.84404 105.846 8.32854 105.846 7.69146C105.846 7.16211 105.989 6.70046 106.275 6.30652C106.564 5.9095 106.952 5.60174 107.438 5.38322C107.928 5.16163 108.474 5.05084 109.077 5.05084C109.687 5.05084 110.228 5.16009 110.702 5.37861C111.176 5.59404 111.552 5.8895 111.829 6.26497C112.109 6.64044 112.257 7.0667 112.272 7.54373H111.164Z" fill="#2A2A2A"/>
<defs>
<linearGradient id="paint0_linear_143_1936" x1="12.2902" y1="13.4865" x2="8.43492" y2="17.3417" gradientUnits="userSpaceOnUse">
<stop stop-color="#00FFD1"/>
<stop offset="1" stop-color="#00A3FF"/>
</linearGradient>
</defs>
</svg>
