<svg width="22" height="16" viewBox="0 0 22 16" fill="none" xmlns="http://www.w3.org/2000/svg">
<path d="M14.9 0.999925C14.73 0.999925 14.58 1.08992 14.49 1.22992L14.42 1.37992L9.24 13.0299C9.08 13.3199 8.98 13.6399 8.98 13.9899C8.98 15.0999 9.88 15.9999 10.99 15.9999C11.95 15.9999 12.76 15.3199 12.95 14.4099L12.96 14.3799L15.4 1.49992C15.4 1.21992 15.18 0.999925 14.9 0.999925ZM0 4.99992L2 6.99992C4.88 4.11992 8.79 2.91992 12.53 3.37992L13.72 0.699925C8.89 -0.160075 3.74 1.26992 0 4.99992ZM20 6.99992L22 4.99992C20.4188 3.41719 18.511 2.19881 16.41 1.42992L15.88 4.24992C17.38 4.86992 18.78 5.77992 20 6.99992ZM16 10.9999L18 8.99992C17.2 8.19992 16.3 7.57992 15.34 7.10992L14.79 10.0299C15.21 10.2999 15.62 10.6199 16 10.9999ZM4 8.99992L6 10.9999C7.09101 9.91402 8.50538 9.2121 10.03 8.99992L11.31 6.11992C8.68 6.03992 6.01 6.98992 4 8.99992Z" fill="#222"/>
</svg>
